<svg viewBox="0 0 289 85" fill="none" xmlns="http://www.w3.org/2000/svg">
<g clip-path="url(#clip0_41388_120697)">
<path d="M42.1 84.2C65.3512 84.2 84.2 65.3512 84.2 42.1C84.2 18.8488 65.3512 0 42.1 0C18.8488 0 0 18.8488 0 42.1C0 65.3512 18.8488 84.2 42.1 84.2Z" fill="#146EB4"/>
<path d="M58.6992 20H25.4992C22.2992 20 19.6992 22.6 19.6992 25.8V58.3C19.6992 61.5 22.2992 64.1 25.4992 64.1H58.6992C61.8992 64.1 64.4992 61.5 64.4992 58.3V25.8C64.4992 22.6 61.8992 20 58.6992 20ZM42.0992 45.9C33.8992 45.9 27.0992 39.5 26.3992 31.4C26.2992 30.5 26.5992 29.7 27.1992 29.1C27.7992 28.5 28.4992 28.1 29.3992 28C30.1992 27.9 31.0992 28.2 31.6992 28.7C32.3992 29.3 32.6992 30 32.7992 30.9C33.1992 35.7 37.1992 39.5 42.0992 39.5C46.8992 39.5 50.9992 35.7 51.3992 30.9C51.4992 29.2 53.0992 27.9 54.7992 28C55.6992 28.1 56.3992 28.5 56.9992 29.1C57.5992 29.7 57.7992 30.6 57.7992 31.4C57.0992 39.5 50.1992 45.9 42.0992 45.9Z" fill="white"/>
</g>
<defs>
<clipPath id="clip0_41388_120697">
<rect width="288.6" height="84.2" fill="white"/>
</clipPath>
</defs>
</svg>
